<svg width="140" height="140" viewBox="0 0 140 140" fill="none" xmlns="http://www.w3.org/2000/svg">
<rect width="140" height="140" rx="10" fill="black"/>
<path d="M31.4624 43.8931H42.1265L66.1206 93.5H55.5518L51.5845 85.1528H22.6074L18.7671 93.5H8.1665L31.4624 43.8931ZM47.6172 76.8691L36.8896 54.335L26.4478 76.8691H47.6172ZM70.437 68.2363C70.437 64.7451 71.0929 61.4867 72.4048 58.4609C73.7166 55.4141 75.6315 52.7692 78.1494 50.5264C80.6673 48.2835 83.7565 46.5168 87.417 45.2261C91.0986 43.9354 95.3092 43.29 100.049 43.29C101.763 43.29 103.477 43.3853 105.19 43.5757C106.925 43.745 108.629 44.02 110.3 44.4009C111.993 44.7817 113.633 45.2684 115.22 45.8608C116.828 46.4321 118.351 47.1198 119.79 47.9238L115.156 55.541C114.289 55.0332 113.305 54.5783 112.205 54.1763C111.104 53.7531 109.919 53.404 108.65 53.1289C107.402 52.8327 106.1 52.6105 104.746 52.4624C103.413 52.3143 102.069 52.2402 100.715 52.2402C97.5838 52.2402 94.7909 52.6423 92.3364 53.4463C89.882 54.2292 87.8084 55.34 86.1157 56.7788C84.423 58.1965 83.1323 59.8997 82.2437 61.8887C81.355 63.8776 80.9106 66.057 80.9106 68.4268C80.9106 70.8812 81.3761 73.1346 82.3071 75.187C83.2381 77.2394 84.5605 79.0062 86.2744 80.4873C87.9883 81.9684 90.0618 83.1322 92.4951 83.9785C94.9284 84.8037 97.6473 85.2163 100.652 85.2163C103.043 85.2163 105.233 84.9518 107.222 84.4229C109.211 83.8727 110.946 83.1004 112.427 82.106C113.908 81.1115 115.114 79.916 116.045 78.5195C116.976 77.1019 117.59 75.515 117.886 73.7588H100.557V65.4751H126.931V65.5068L126.963 65.4751C127.492 68.0142 127.651 70.4897 127.439 72.9019C127.249 75.2928 126.698 77.5568 125.789 79.6938C124.9 81.8097 123.673 83.7563 122.107 85.5337C120.541 87.311 118.669 88.8451 116.489 90.1357C114.31 91.4053 111.834 92.3997 109.062 93.1191C106.291 93.8174 103.254 94.1665 99.9536 94.1665C95.341 94.1665 91.2044 93.4894 87.5439 92.1353C83.9046 90.7811 80.8154 88.9297 78.2764 86.5811C75.7373 84.2324 73.7907 81.4818 72.4365 78.3291C71.1035 75.1764 70.437 71.8122 70.437 68.2363Z" fill="white"/>
</svg>
